<svg width="32" height="32" viewBox="0 0 32 32" fill="none" xmlns="http://www.w3.org/2000/svg">
<path fill-rule="evenodd" clip-rule="evenodd" d="M29.3333 16C29.3333 23.3638 23.3638 29.3334 16 29.3334C8.63621 29.3334 2.66667 23.3638 2.66667 16C2.66667 8.63622 8.63621 2.66669 16 2.66669C23.3638 2.66669 29.3333 8.63622 29.3333 16ZM16.4778 12.5099C15.181 13.0494 12.5891 14.1658 8.70213 15.8593C8.07095 16.1103 7.74031 16.3558 7.71021 16.5959C7.65934 17.0017 8.16749 17.1615 8.85944 17.3791C8.95357 17.4087 9.05109 17.4393 9.15107 17.4718C9.83185 17.6931 10.7476 17.952 11.2237 17.9623C11.6555 17.9716 12.1375 17.7936 12.6696 17.4282C16.3013 14.9767 18.176 13.7376 18.2937 13.7109C18.3767 13.692 18.4918 13.6683 18.5698 13.7376C18.6477 13.8069 18.6401 13.9382 18.6318 13.9734C18.5815 14.188 16.5868 16.0424 15.5546 17.002C15.2328 17.3012 15.0046 17.5134 14.9579 17.5619C14.8534 17.6704 14.7468 17.7731 14.6444 17.8718C14.012 18.4815 13.5377 18.9387 14.6707 19.6854C15.2152 20.0442 15.6509 20.3409 16.0855 20.6369C16.5602 20.9601 17.0337 21.2826 17.6463 21.6841C17.8023 21.7864 17.9514 21.8927 18.0966 21.9962C18.649 22.39 19.1453 22.7438 19.7585 22.6874C20.1147 22.6546 20.4828 22.3196 20.6697 21.3204C21.1114 18.9591 21.9796 13.8428 22.1803 11.7344C22.1978 11.5497 22.1757 11.3133 22.158 11.2096C22.1402 11.1058 22.1031 10.9579 21.9682 10.8485C21.8085 10.7188 21.5618 10.6915 21.4515 10.6935C20.9501 10.7023 20.1806 10.9698 16.4778 12.5099Z" fill="#5A1006"/>
</svg>
