<svg width="33" height="32" viewBox="0 0 33 32" fill="none" xmlns="http://www.w3.org/2000/svg">
<mask id="mask0_1_59" style="mask-type:alpha" maskUnits="userSpaceOnUse" x="0" y="0" width="33" height="32">
<rect x="0.5" width="32" height="32" fill="#D9D9D9"/>
</mask>
<g mask="url(#mask0_1_59)">
<path d="M16.5 29.3334C14.6778 29.3334 12.9556 28.9834 11.3333 28.2834C9.71112 27.5834 8.29445 26.6278 7.08334 25.4167C5.87223 24.2056 4.91667 22.7889 4.21667 21.1667C3.51667 19.5445 3.16667 17.8222 3.16667 16C3.16667 14.1556 3.51667 12.4278 4.21667 10.8167C4.91667 9.20558 5.87223 7.79446 7.08334 6.58335C8.29445 5.37224 9.71112 4.41669 11.3333 3.71669C12.9556 3.01669 14.6778 2.66669 16.5 2.66669C18.3444 2.66669 20.0722 3.01669 21.6833 3.71669C23.2944 4.41669 24.7056 5.37224 25.9167 6.58335C27.1278 7.79446 28.0833 9.20558 28.7833 10.8167C29.4833 12.4278 29.8333 14.1556 29.8333 16C29.8333 17.8222 29.4833 19.5445 28.7833 21.1667C28.0833 22.7889 27.1278 24.2056 25.9167 25.4167C24.7056 26.6278 23.2944 27.5834 21.6833 28.2834C20.0722 28.9834 18.3444 29.3334 16.5 29.3334ZM16.5 26.6C17.0778 25.8 17.5778 24.9667 18 24.1C18.4222 23.2334 18.7667 22.3111 19.0333 21.3334H13.9667C14.2333 22.3111 14.5778 23.2334 15 24.1C15.4222 24.9667 15.9222 25.8 16.5 26.6ZM13.0333 26.0667C12.6333 25.3334 12.2833 24.5722 11.9833 23.7834C11.6833 22.9945 11.4333 22.1778 11.2333 21.3334H7.3C7.94445 22.4445 8.75 23.4111 9.71667 24.2334C10.6833 25.0556 11.7889 25.6667 13.0333 26.0667ZM19.9667 26.0667C21.2111 25.6667 22.3167 25.0556 23.2833 24.2334C24.25 23.4111 25.0556 22.4445 25.7 21.3334H21.7667C21.5667 22.1778 21.3167 22.9945 21.0167 23.7834C20.7167 24.5722 20.3667 25.3334 19.9667 26.0667ZM6.16667 18.6667H10.7C10.6333 18.2222 10.5833 17.7834 10.55 17.35C10.5167 16.9167 10.5 16.4667 10.5 16C10.5 15.5334 10.5167 15.0834 10.55 14.65C10.5833 14.2167 10.6333 13.7778 10.7 13.3334H6.16667C6.05556 13.7778 5.97223 14.2167 5.91667 14.65C5.86112 15.0834 5.83334 15.5334 5.83334 16C5.83334 16.4667 5.86112 16.9167 5.91667 17.35C5.97223 17.7834 6.05556 18.2222 6.16667 18.6667ZM13.3667 18.6667H19.6333C19.7 18.2222 19.75 17.7834 19.7833 17.35C19.8167 16.9167 19.8333 16.4667 19.8333 16C19.8333 15.5334 19.8167 15.0834 19.7833 14.65C19.75 14.2167 19.7 13.7778 19.6333 13.3334H13.3667C13.3 13.7778 13.25 14.2167 13.2167 14.65C13.1833 15.0834 13.1667 15.5334 13.1667 16C13.1667 16.4667 13.1833 16.9167 13.2167 17.35C13.25 17.7834 13.3 18.2222 13.3667 18.6667ZM22.3 18.6667H26.8333C26.9444 18.2222 27.0278 17.7834 27.0833 17.35C27.1389 16.9167 27.1667 16.4667 27.1667 16C27.1667 15.5334 27.1389 15.0834 27.0833 14.65C27.0278 14.2167 26.9444 13.7778 26.8333 13.3334H22.3C22.3667 13.7778 22.4167 14.2167 22.45 14.65C22.4833 15.0834 22.5 15.5334 22.5 16C22.5 16.4667 22.4833 16.9167 22.45 17.35C22.4167 17.7834 22.3667 18.2222 22.3 18.6667ZM21.7667 10.6667H25.7C25.0556 9.55558 24.25 8.58891 23.2833 7.76669C22.3167 6.94446 21.2111 6.33335 19.9667 5.93335C20.3667 6.66669 20.7167 7.4278 21.0167 8.21669C21.3167 9.00558 21.5667 9.82224 21.7667 10.6667ZM13.9667 10.6667H19.0333C18.7667 9.68891 18.4222 8.76669 18 7.90002C17.5778 7.03335 17.0778 6.20002 16.5 5.40002C15.9222 6.20002 15.4222 7.03335 15 7.90002C14.5778 8.76669 14.2333 9.68891 13.9667 10.6667ZM7.3 10.6667H11.2333C11.4333 9.82224 11.6833 9.00558 11.9833 8.21669C12.2833 7.4278 12.6333 6.66669 13.0333 5.93335C11.7889 6.33335 10.6833 6.94446 9.71667 7.76669C8.75 8.58891 7.94445 9.55558 7.3 10.6667Z" fill="#5A1006"/>
</g>
</svg>
